<svg width="40" height="40" viewBox="0 0 40 40" fill="none" xmlns="http://www.w3.org/2000/svg">
<rect width="40" height="40" rx="8" fill="white"/>
<path d="M13.75 21.0782L27.7969 33.4375C27.9592 33.5813 28.1561 33.6803 28.3683 33.7249C28.5805 33.7695 28.8006 33.7581 29.0071 33.6919C29.2135 33.6257 29.3992 33.507 29.5459 33.3473C29.6926 33.1877 29.7952 32.9926 29.8437 32.7813L35.7187 7.12505C35.768 6.90409 35.7563 6.67391 35.685 6.45907C35.6136 6.24423 35.4853 6.0528 35.3136 5.90521C35.142 5.75762 34.9335 5.65942 34.7104 5.62108C34.4873 5.58275 34.2579 5.60572 34.0469 5.68755L5.20312 17.0157C4.04687 17.4688 4.20312 19.1563 5.42187 19.4063L13.75 21.0782Z" fill="#333132"/>
<path d="M13.75 21.0781L35.0156 5.71875" stroke="white" stroke-width="2" stroke-linecap="round" stroke-linejoin="round"/>
<path d="M20.7656 27.25L15.8906 32.125C15.7167 32.3016 15.4942 32.4225 15.2514 32.4724C15.0086 32.5222 14.7565 32.4988 14.527 32.405C14.2976 32.3112 14.1012 32.1513 13.9629 31.9457C13.8245 31.74 13.7504 31.4979 13.75 31.25V21.0781" fill="#333132"/>
</svg>
