<svg width="40" height="41" viewBox="0 0 40 41" fill="none" xmlns="http://www.w3.org/2000/svg">
<path d="M34 1H6C2.68629 1 0 3.68629 0 7V35C0 38.3137 2.68629 41 6 41H34C37.3137 41 40 38.3137 40 35V7C40 3.68629 37.3137 1 34 1Z" fill="white"/>
<mask id="mask0_2_42" style="mask-type:luminance" maskUnits="userSpaceOnUse" x="4" y="4" width="32" height="33">
<path d="M36 4.85742H4V36.8574H36V4.85742Z" fill="white"/>
</mask>
<g mask="url(#mask0_2_42)">
<path d="M6.54287 20.8757C6.47323 13.5836 12.4834 7.14311 20.5101 7.39794C27.462 7.61954 33.5062 13.2829 33.4761 20.9089C33.4468 28.4203 27.4407 34.3171 20.04 34.3345C12.515 34.3527 6.52309 28.3087 6.54287 20.8757ZM17.4789 24.2859C17.5216 22.2227 15.8572 20.905 14.2578 20.8409C12.2293 20.7594 10.7272 22.3826 10.7098 24.1783C10.6924 25.959 12.033 27.6178 14.1319 27.6415C15.9847 27.6621 17.52 26.0785 17.4789 24.2859ZM23.4028 23.375C21.4962 23.375 19.998 24.8731 19.9869 26.7702C19.9767 28.4867 21.3601 30.1811 23.4336 30.1693C25.2191 30.159 26.7505 28.7511 26.7759 26.7543C26.7996 24.9214 25.2547 23.375 23.4028 23.375ZM25.9852 20.8678C27.6259 20.9517 29.3551 19.41 29.3108 17.403C29.2673 15.4324 27.5554 14.0086 25.7264 14.098C23.884 14.1891 22.4673 15.7244 22.5211 17.6602C22.571 19.4638 24.1364 20.9137 25.9852 20.8678ZM16.6368 18.3329C18.3898 18.4864 20.0993 16.7604 20.0154 14.8246C19.9371 13.0201 18.4642 11.5655 16.5949 11.5734C14.7018 11.5814 13.2708 13.0653 13.2439 14.9805C13.2178 16.8411 14.9289 18.4374 16.6368 18.3329ZM20.0265 19.1647C19.0578 19.1496 18.3107 19.8738 18.3115 20.8409C18.3115 21.8088 18.9462 22.5313 20.0574 22.5804C20.9343 22.6192 21.751 21.7668 21.721 20.8338C21.6869 19.7915 20.8781 19.1591 20.0265 19.1647Z" fill="#333132"/>
<path d="M35.154 18.6218C34.3261 14.2287 32.0864 10.7591 28.4141 8.20128C28.4331 8.17595 28.4521 8.14984 28.4711 8.12451C29.5641 8.37302 30.6547 8.62785 31.7492 8.86765C32.6071 9.056 33.3756 9.42639 34.038 9.99541C35.1904 10.9855 35.8457 12.228 35.981 13.761C36.0902 14.9987 35.6739 16.1415 35.4507 17.3199C35.3684 17.7568 35.2545 18.1881 35.154 18.6218Z" fill="#333132"/>
<path d="M7.3256 12.4627C7.39287 11.8248 7.52821 11.3167 7.6493 10.8062C7.86536 9.89769 7.95637 8.95829 8.35446 8.09644C9.42052 5.79422 11.5677 4.65458 13.9998 4.88646C14.8466 4.96719 15.6776 5.23627 16.5078 5.44837C16.9581 5.56391 17.4457 5.52672 17.9078 5.78709C13.441 6.49857 9.96265 8.72324 7.3256 12.4627Z" fill="#333132"/>
<path d="M32.7433 29.3105C32.5011 30.379 32.2526 31.4458 32.0175 32.5166C31.7959 33.5288 31.3416 34.4223 30.6191 35.1575C29.0631 36.7419 27.1787 37.159 25.0529 36.6564C24.1064 36.4325 23.1582 36.214 22.1175 35.9719C26.6223 35.1797 30.1038 32.9336 32.7425 29.3113L32.7433 29.3105Z" fill="#333132"/>
<path d="M11.5811 33.6053C10.6623 33.3948 9.74659 33.1708 8.82457 32.9785C8.06717 32.8202 7.3351 32.616 6.66713 32.2068C5.25917 31.345 4.42342 30.0969 4.08706 28.4904C3.88445 27.5248 4.0736 26.591 4.27779 25.6571C4.44162 24.9084 4.6284 24.1645 4.79856 23.4166C4.8223 23.3121 4.84762 23.214 4.94972 23.0811C5.70475 27.5256 7.94449 30.992 11.5811 33.6053Z" fill="#333132"/>
</g>
</svg>
