<svg width="40" height="40" viewBox="0 0 40 40" fill="none" xmlns="http://www.w3.org/2000/svg">
<rect width="40" height="40" rx="6" fill="white"/>
<path d="M7.09375 27.6564C5.23263 24.5164 4.58163 20.805 5.26297 17.2191C5.94431 13.6332 7.91113 10.4192 10.7942 8.18063C13.6772 5.94205 17.2783 4.83279 20.9212 5.0611C24.5642 5.2894 27.9985 6.83957 30.5795 9.42058C33.1605 12.0016 34.7107 15.4359 34.939 19.0789C35.1673 22.7219 34.0581 26.3229 31.8195 29.2059C29.5809 32.089 26.367 34.0558 22.781 34.7371C19.1951 35.4185 15.4837 34.7675 12.3437 32.9064L7.15624 34.3751C6.94371 34.4373 6.71837 34.4411 6.50383 34.3862C6.2893 34.3314 6.09348 34.2198 5.9369 34.0632C5.78032 33.9066 5.66874 33.7108 5.61387 33.4963C5.55899 33.2817 5.56283 33.0564 5.625 32.8439L7.09375 27.6564Z" fill="#333132"/>
<path d="M23.7656 28.75C22.1209 28.7542 20.4915 28.4332 18.9712 27.8057C17.4509 27.1782 16.0695 26.2565 14.9065 25.0935C13.7435 23.9305 12.8218 22.5491 12.1943 21.0288C11.5668 19.5085 11.2459 17.8791 11.25 16.2344C11.2541 15.0768 11.7169 13.968 12.5369 13.1509C13.3569 12.3338 14.4674 11.875 15.625 11.875C15.816 11.8735 16.0039 11.9235 16.1688 12.0197C16.3338 12.116 16.4698 12.2549 16.5625 12.4219L18.3906 15.6094C18.4993 15.8032 18.5551 16.0222 18.5524 16.2443C18.5496 16.4665 18.4885 16.684 18.375 16.875L16.9062 19.3282C17.6586 21.0017 18.9983 22.3415 20.6719 23.0938L23.125 21.625C23.316 21.5116 23.5335 21.4504 23.7557 21.4476C23.9779 21.4449 24.1969 21.5007 24.3906 21.6094L27.5781 23.4375C27.7451 23.5302 27.8841 23.6662 27.9803 23.8312C28.0765 23.9962 28.1265 24.184 28.125 24.375C28.1209 25.5314 27.6608 26.6395 26.8446 27.4586C26.0284 28.2777 24.922 28.7418 23.7656 28.75Z" fill="white"/>
</svg>
