<svg width="40" height="40" viewBox="0 0 40 40" fill="none" xmlns="http://www.w3.org/2000/svg">
<g clip-path="url(#clip0_2_54)">
<path d="M32 0H8C3.58172 0 0 3.58172 0 8V32C0 36.4183 3.58172 40 8 40H32C36.4183 40 40 36.4183 40 32V8C40 3.58172 36.4183 0 32 0Z" fill="white"/>
<path d="M20 26.25C23.4518 26.25 26.25 23.4518 26.25 20C26.25 16.5482 23.4518 13.75 20 13.75C16.5482 13.75 13.75 16.5482 13.75 20C13.75 23.4518 16.5482 26.25 20 26.25Z" fill="white"/>
<path d="M26.875 5.625H13.125C8.98286 5.625 5.625 8.98286 5.625 13.125V26.875C5.625 31.0171 8.98286 34.375 13.125 34.375H26.875C31.0171 34.375 34.375 31.0171 34.375 26.875V13.125C34.375 8.98286 31.0171 5.625 26.875 5.625Z" fill="#333132"/>
<path d="M28.125 13.75C29.1605 13.75 30 12.9105 30 11.875C30 10.8395 29.1605 10 28.125 10C27.0895 10 26.25 10.8395 26.25 11.875C26.25 12.9105 27.0895 13.75 28.125 13.75Z" fill="white"/>
<path d="M20 25.7147C23.1559 25.7147 25.7143 23.1563 25.7143 20.0004C25.7143 16.8445 23.1559 14.2861 20 14.2861C16.8441 14.2861 14.2857 16.8445 14.2857 20.0004C14.2857 23.1563 16.8441 25.7147 20 25.7147Z" fill="white"/>
</g>
<defs>
<clipPath id="clip0_2_54">
<rect width="40" height="40" fill="white"/>
</clipPath>
</defs>
</svg>
